 <svg
            width="24"
            height="24"
            viewBox="0 0 64 64"
            fill="none"
            xmlns="http://www.w3.org/2000/svg"
          >
            <path
              d="M50 4.1C50 2.1 47.9 0 45.7 0H18.3C16.1 0 14 2.1 14 4.1V59.8C14 61.9 16.1 63.9 18.3 63.9H45.8C47.9 63.9 50.1 61.8 50.1 59.8V4.1H50Z"
              fill="#171F38"
            />
            <path
              d="M49 59C49 61 47 63 45 63H19C17 63 15 61 15 59V5C15 3 17 1 19 1H45C47 1 49 3 49 5V59Z"
              fill="#EC4A4B"
            />
            <path
              d="M43.5 5.5C44.0523 5.5 44.5 5.05228 44.5 4.5C44.5 3.94772 44.0523 3.5 43.5 3.5C42.9477 3.5 42.5 3.94772 42.5 4.5C42.5 5.05228 42.9477 5.5 43.5 5.5Z"
              fill="#171F38"
            />
            <path
              d="M35 4.5C35 4.8 34.9 5 34.7 5H29.3C29.1 5 29 4.8 29 4.5C29 4.3 29.1 4 29.3 4H34.7C34.9 4 35 4.3 35 4.5Z"
              fill="#171F38"
            />
            <path d="M17 8H47V56H17V8Z" fill="#171F38" />
            <path
              d="M35.8 60.2C35.8 60.6 35.5 61 35 61H29C28.6 61 28.2 60.7 28.2 60.2V58.7C28.2 58.3 28.5 57.9 29 57.9H35C35.4 57.9 35.8 58.2 35.8 58.7V60.2Z"
              fill="#171F38"
            />
          </svg>